<svg id="Capa_1" data-name="Capa 1" xmlns="http://www.w3.org/2000/svg" viewBox="0 0 39.22 20"><defs><style>.cls-1{fill:#b9cdbe;}</style></defs><path class="cls-1" d="M2.65,11.34V2s0-1-.42-1H3.9V11.34s0,1,.42,1H2.23C2.66,12.3,2.65,11.34,2.65,11.34Z"/><path class="cls-1" d="M12,12.3H10v-.52c-1.88,1.27-5,.58-4.82-2C5.39,6.49,9.92,8.52,10,5.86c0-1.22-.71-2.05-1.65-2C6.48,3.91,6.52,5.29,7,5.52a.71.71,0,0,1-.22,1.35c-1,.19-1.34-.51-1.39-1.15C5.54,3,11.31,2.66,11.31,6v5.24S11.44,12.3,12,12.3Zm-2-.93V7.25A2.27,2.27,0,0,1,8.53,8C5,8.63,6.7,13.93,10,11.37Z"/><path class="cls-1" d="M19.73,12.29H18v-1.2a2.68,2.68,0,0,1-4.91-1.58c0-1.12,0-3.4,0-4.76h0s-.11-.9-.55-.9h1.76V9.48c0,3.09,2.86,3.14,3.71.73V4.75h0s-.11-.9-.55-.9h1.74v7.33c0,.35.2,1.11.55,1.11Z"/><path class="cls-1" d="M25.2,6.23a.85.85,0,0,1-.8-1.45.51.51,0,0,0-.14-.8c-.77-.2-1.88.85-2,2.49v.66h0v4.08s.11,1.09.55,1.09H20.55c.42,0,.54-1,.55-1.08V4.91s-.1-1.09-.55-1.09h1.74V4.88a2.31,2.31,0,0,1,2.4-1.16C25.88,4.05,26.42,5.88,25.2,6.23Z"/><path class="cls-1" d="M32.87,7.75H27.94c0,.08,0,.16,0,.24,0,2,.9,4,2.56,4A2.24,2.24,0,0,0,33,10c0-.4-.3-.33-.52-.66-.58-.89.92-1.68,1.37-.63s-.37,3.66-3.47,3.66c-2.26,0-3.85-2-3.85-4.39s1.59-4.38,3.85-4.38S34.1,5.33,34.1,7.75ZM28,7.26h4.87c-.16-1.83-1.22-3.34-2.5-3.34S28.18,5.49,28,7.26Z"/><path class="cls-1" d="M35.32,11.34V2s0-1-.42-1h1.67V11.34s0,1,.42,1H34.9C35.33,12.3,35.32,11.34,35.32,11.34Z"/><path class="cls-1" d="M21.76,17.71a.25.25,0,0,1-.25-.19l-.83-1.93a.25.25,0,0,1,0-.19c0-.06.09-.08.18-.08a.2.2,0,0,1,.19.15l.73,1.76.73-1.76a.22.22,0,0,1,.07-.12.23.23,0,0,1,.13,0,.15.15,0,0,1,.15.08.23.23,0,0,1,0,.18L22,17.52A.25.25,0,0,1,21.76,17.71Z"/><path class="cls-1" d="M23.54,14.79a.22.22,0,0,1-.25-.24c0-.16.09-.23.25-.23s.26.07.26.23S23.71,14.79,23.54,14.79Zm0,2.91c-.12,0-.19-.07-.19-.21v-2c0-.14.07-.2.19-.2s.2.06.2.2v2C23.74,17.63,23.68,17.7,23.54,17.7Z"/><path class="cls-1" d="M25.2,17.72a.85.85,0,0,1-.43-.1.68.68,0,0,1-.3-.25.6.6,0,0,1-.11-.37.58.58,0,0,1,.13-.4.76.76,0,0,1,.43-.21,4.56,4.56,0,0,1,.83-.06h.16v-.15a.63.63,0,0,0-.12-.43.53.53,0,0,0-.39-.13,1.27,1.27,0,0,0-.34,0,2,2,0,0,0-.35.14.19.19,0,0,1-.14,0,.18.18,0,0,1-.08-.09.24.24,0,0,1,0-.12.17.17,0,0,1,.1-.1,2.05,2.05,0,0,1,.41-.16,1.87,1.87,0,0,1,.4,0,.86.86,0,0,1,.66.22.9.9,0,0,1,.22.68v1.3c0,.13-.06.2-.18.2s-.18-.07-.18-.2v-.24a.75.75,0,0,1-.28.33A.83.83,0,0,1,25.2,17.72Zm.06-.29a.63.63,0,0,0,.47-.2.72.72,0,0,0,.18-.51v-.14h-.15a3.3,3.3,0,0,0-.61,0,.53.53,0,0,0-.31.12.32.32,0,0,0-.09.24.42.42,0,0,0,.14.32A.54.54,0,0,0,25.26,17.43Z"/><path class="cls-1" d="M27.19,17.71c-.13,0-.19-.07-.19-.2v-2a.17.17,0,0,1,.19-.19.17.17,0,0,1,.19.19v.24a.68.68,0,0,1,.32-.33,1,1,0,0,1,.48-.11c.55,0,.82.3.82.92v1.28c0,.13-.06.2-.19.2s-.19-.07-.19-.2V16.25a.76.76,0,0,0-.13-.48.5.5,0,0,0-.41-.15.65.65,0,0,0-.5.2.72.72,0,0,0-.19.53v1.16A.18.18,0,0,1,27.19,17.71Z"/><path class="cls-1" d="M30.6,17.72a1,1,0,0,1-.54-.15.93.93,0,0,1-.36-.42,1.64,1.64,0,0,1,0-1.28.93.93,0,0,1,.36-.42,1,1,0,0,1,.54-.14,1,1,0,0,1,.48.12.76.76,0,0,1,.31.33v-1.3c0-.13.07-.19.2-.19a.17.17,0,0,1,.19.19v3.05a.18.18,0,0,1-.19.2c-.13,0-.19-.07-.19-.2v-.25a.87.87,0,0,1-.32.34A1,1,0,0,1,30.6,17.72Zm.08-.31a.63.63,0,0,0,.52-.24,1.19,1.19,0,0,0,0-1.32.7.7,0,0,0-1,0,1.19,1.19,0,0,0,0,1.32A.63.63,0,0,0,30.68,17.41Z"/><path class="cls-1" d="M33.24,17.72a.85.85,0,0,1-.43-.1A.67.67,0,0,1,32.4,17a.58.58,0,0,1,.13-.4.76.76,0,0,1,.44-.21,4.48,4.48,0,0,1,.83-.06H34v-.15a.63.63,0,0,0-.12-.43.5.5,0,0,0-.39-.13,1.32,1.32,0,0,0-.34,0,2,2,0,0,0-.35.14.18.18,0,0,1-.14,0,.16.16,0,0,1-.07-.09.13.13,0,0,1,0-.12.13.13,0,0,1,.09-.1,2.31,2.31,0,0,1,.41-.16,1.87,1.87,0,0,1,.4,0,.9.9,0,0,1,.67.22.94.94,0,0,1,.21.68v1.3c0,.13-.06.2-.17.2s-.19-.07-.19-.2v-.24a.69.69,0,0,1-.28.33A.81.81,0,0,1,33.24,17.72Zm.06-.29a.62.62,0,0,0,.47-.2.72.72,0,0,0,.18-.51v-.14H33.8a3.3,3.3,0,0,0-.61,0,.53.53,0,0,0-.31.12.32.32,0,0,0-.09.24.42.42,0,0,0,.14.32A.54.54,0,0,0,33.3,17.43Z"/><path class="cls-1" d="M35.83,17.72a1.67,1.67,0,0,1-.44-.06,1,1,0,0,1-.4-.18.15.15,0,0,1-.09-.13.19.19,0,0,1,.07-.13s.09,0,.16,0a1.42,1.42,0,0,0,.36.16,1.32,1.32,0,0,0,.34,0,.71.71,0,0,0,.42-.1.32.32,0,0,0,.13-.27.26.26,0,0,0-.09-.21.56.56,0,0,0-.28-.13l-.44-.09c-.39-.09-.59-.29-.59-.61a.6.6,0,0,1,.25-.51,1.05,1.05,0,0,1,.66-.19,1.67,1.67,0,0,1,.39,0,1.06,1.06,0,0,1,.35.18.13.13,0,0,1,.07.14.19.19,0,0,1-.07.12.14.14,0,0,1-.16,0,1.11,1.11,0,0,0-.29-.14,1,1,0,0,0-.29-.05.67.67,0,0,0-.41.11.34.34,0,0,0-.14.28c0,.17.12.29.36.34l.43.09a1.1,1.1,0,0,1,.46.21.51.51,0,0,1,.16.4.58.58,0,0,1-.25.5A1.07,1.07,0,0,1,35.83,17.72Z"/></svg>